<svg id="Layer_1" data-name="Layer 1" xmlns="http://www.w3.org/2000/svg" xmlns:xlink="http://www.w3.org/1999/xlink" viewBox="0 0 24.91 5.68"><defs><style>.cls-1{fill:none;}.cls-2{fill:#0eb8ad;}.cls-3{fill:#25245e;}.cls-4{fill:#e82352;}.cls-5{fill:#f8b03c;}.cls-6{fill:#e3e3d5;}.cls-7{fill:url(#New_Pattern_Swatch_5);}.cls-8{fill:url(#New_Pattern_Swatch_8);}.cls-9{fill:url(#New_Pattern_Swatch_7);}.cls-10{fill:url(#New_Pattern_Swatch_6);}.cls-11{fill:url(#New_Pattern_Swatch_4);}.cls-12{fill:url(#New_Pattern_Swatch_4-7);}.cls-13{fill:url(#New_Pattern_Swatch_7-5);}.cls-14{fill:url(#New_Pattern_Swatch_6-21);}.cls-15{fill:url(#New_Pattern_Swatch_5-89);}.cls-16{fill:url(#New_Pattern_Swatch_8-67);}</style><pattern id="New_Pattern_Swatch_5" data-name="New Pattern Swatch 5" width="3" height="3" patternTransform="matrix(1, 0, 0, -1, 1.92, 4162)" patternUnits="userSpaceOnUse" viewBox="0 0 3 3"><rect class="cls-1" width="3" height="3"/><rect class="cls-1" width="3" height="3"/><rect class="cls-3" width="3" height="3"/></pattern><pattern id="New_Pattern_Swatch_8" data-name="New Pattern Swatch 8" width="3" height="3" patternTransform="matrix(1, 0, 0, -1, 1.92, 4162)" patternUnits="userSpaceOnUse" viewBox="0 0 3 3"><rect class="cls-1" width="3" height="3"/><rect class="cls-1" width="3" height="3"/><rect class="cls-6" width="3" height="3"/></pattern><pattern id="New_Pattern_Swatch_7" data-name="New Pattern Swatch 7" width="3" height="3" patternTransform="matrix(1, 0, 0, -1, 1.92, 4162)" patternUnits="userSpaceOnUse" viewBox="0 0 3 3"><rect class="cls-1" width="3" height="3"/><rect class="cls-1" width="3" height="3"/><rect class="cls-5" width="3" height="3"/></pattern><pattern id="New_Pattern_Swatch_6" data-name="New Pattern Swatch 6" width="3" height="3" patternTransform="matrix(1, 0, 0, -1, 1.92, 4162)" patternUnits="userSpaceOnUse" viewBox="0 0 3 3"><rect class="cls-1" width="3" height="3"/><rect class="cls-1" width="3" height="3"/><rect class="cls-4" width="3" height="3"/></pattern><pattern id="New_Pattern_Swatch_4" data-name="New Pattern Swatch 4" width="3" height="3" patternTransform="matrix(1, 0, 0, -1, 1.92, 4162)" patternUnits="userSpaceOnUse" viewBox="0 0 3 3"><rect class="cls-1" width="3" height="3"/><rect class="cls-1" width="3" height="3"/><rect class="cls-2" width="3" height="3"/></pattern><pattern id="New_Pattern_Swatch_4-7" data-name="New Pattern Swatch 4" width="3" height="3" patternTransform="matrix(1, 0, 0, -1, 2, 4162)" patternUnits="userSpaceOnUse" viewBox="0 0 3 3"><rect class="cls-1" width="3" height="3"/><rect class="cls-1" width="3" height="3"/><rect class="cls-2" width="3" height="3"/></pattern><pattern id="New_Pattern_Swatch_7-5" data-name="New Pattern Swatch 7" width="3" height="3" patternTransform="matrix(1, 0, 0, -1, 2, 4162)" patternUnits="userSpaceOnUse" viewBox="0 0 3 3"><rect class="cls-1" width="3" height="3"/><rect class="cls-1" width="3" height="3"/><rect class="cls-5" width="3" height="3"/></pattern><pattern id="New_Pattern_Swatch_6-21" data-name="New Pattern Swatch 6" width="3" height="3" patternTransform="matrix(1, 0, 0, -1, 2, 4162)" patternUnits="userSpaceOnUse" viewBox="0 0 3 3"><rect class="cls-1" width="3" height="3"/><rect class="cls-1" width="3" height="3"/><rect class="cls-4" width="3" height="3"/></pattern><pattern id="New_Pattern_Swatch_5-89" data-name="New Pattern Swatch 5" width="3" height="3" patternTransform="matrix(1, 0, 0, -1, 2, 4162)" patternUnits="userSpaceOnUse" viewBox="0 0 3 3"><rect class="cls-1" width="3" height="3"/><rect class="cls-1" width="3" height="3"/><rect class="cls-3" width="3" height="3"/></pattern><pattern id="New_Pattern_Swatch_8-67" data-name="New Pattern Swatch 8" width="3" height="3" patternTransform="matrix(1, 0, 0, -1, 2, 4162)" patternUnits="userSpaceOnUse" viewBox="0 0 3 3"><rect class="cls-1" width="3" height="3"/><rect class="cls-1" width="3" height="3"/><rect class="cls-6" width="3" height="3"/></pattern></defs><title>df-bottom</title><circle class="cls-7" cx="16.9" cy="2.95" r="0.07"/><circle class="cls-8" cx="16.18" cy="4.87" r="0.07"/><circle class="cls-9" cx="16.18" cy="5.11" r="0.08"/><circle class="cls-10" cx="15.94" cy="4.39" r="0.07"/><circle class="cls-8" cx="15.94" cy="4.63" r="0.07"/><circle class="cls-8" cx="15.22" cy="3.91" r="0.07"/><circle class="cls-7" cx="15.22" cy="4.87" r="0.07"/><circle class="cls-8" cx="15.22" cy="5.11" r="0.08"/><circle class="cls-7" cx="15.22" cy="5.35" r="0.07"/><circle class="cls-11" cx="14.98" cy="3.91" r="0.07"/><circle class="cls-11" cx="14.74" cy="4.63" r="0.07"/><circle class="cls-7" cx="14.74" cy="4.87" r="0.08"/><circle class="cls-8" cx="14.74" cy="5.35" r="0.07"/><circle class="cls-10" cx="14.74" cy="5.59" r="0.08"/><circle class="cls-10" cx="14.26" cy="4.63" r="0.07"/><circle class="cls-10" cx="13.78" cy="4.39" r="0.07"/><circle class="cls-7" cx="13.3" cy="4.39" r="0.07"/><circle class="cls-8" cx="13.06" cy="3.19" r="0.07"/><circle class="cls-9" cx="13.06" cy="3.43" r="0.09"/><circle class="cls-8" cx="13.06" cy="4.39" r="0.07"/><circle class="cls-7" cx="13.06" cy="4.87" r="0.07"/><circle class="cls-10" cx="13.06" cy="5.11" r="0.08"/><circle class="cls-11" cx="12.82" cy="4.87" r="0.07"/><circle class="cls-7" cx="12.82" cy="5.11" r="0.08"/><circle class="cls-7" cx="12.58" cy="5.11" r="0.07"/><circle class="cls-8" cx="12.58" cy="5.59" r="0.07"/><circle class="cls-7" cx="12.34" cy="5.11" r="0.07"/><circle class="cls-7" cx="12.34" cy="5.35" r="0.07"/><path class="cls-12" d="M12.32,5.59a0.1,0.1,0,0,1,.2,0" transform="translate(-0.08)"/><circle class="cls-11" cx="12.1" cy="5.35" r="0.07"/><path class="cls-13" d="M12.08,5.59a0.1,0.1,0,0,1,.2,0" transform="translate(-0.08)"/><circle class="cls-10" cx="10.9" cy="5.11" r="0.07"/><circle class="cls-8" cx="10.9" cy="5.35" r="0.1"/><circle class="cls-9" cx="10.66" cy="5.11" r="0.07"/><circle class="cls-7" cx="10.42" cy="5.11" r="0.07"/><circle class="cls-9" cx="10.42" cy="5.35" r="0.07"/><circle class="cls-11" cx="10.42" cy="5.59" r="0.07"/><circle class="cls-10" cx="10.18" cy="4.87" r="0.07"/><circle class="cls-10" cx="10.18" cy="5.11" r="0.08"/><circle class="cls-7" cx="10.18" cy="5.35" r="0.07"/><circle class="cls-9" cx="9.94" cy="4.15" r="0.07"/><circle class="cls-11" cx="9.7" cy="3.67" r="0.07"/><circle class="cls-7" cx="9.7" cy="4.15" r="0.07"/><circle class="cls-11" cx="9.7" cy="4.39" r="0.07"/><circle class="cls-7" cx="9.7" cy="4.63" r="0.07"/><circle class="cls-7" cx="9.7" cy="4.87" r="0.09"/><circle class="cls-7" cx="9.7" cy="5.11" r="0.08"/><circle class="cls-10" cx="9.7" cy="5.35" r="0.1"/><circle class="cls-7" cx="9.22" cy="3.19" r="0.07"/><circle class="cls-8" cx="9.22" cy="3.43" r="0.07"/><circle class="cls-8" cx="9.22" cy="3.67" r="0.07"/><circle class="cls-8" cx="9.22" cy="3.91" r="0.1"/><circle class="cls-11" cx="9.22" cy="4.15" r="0.07"/><circle class="cls-11" cx="9.22" cy="4.39" r="0.09"/><circle class="cls-7" cx="9.22" cy="4.63" r="0.08"/><circle class="cls-8" cx="9.22" cy="4.87" r="0.08"/><circle class="cls-7" cx="9.22" cy="5.11" r="0.09"/><circle class="cls-7" cx="9.22" cy="5.35" r="0.09"/><circle class="cls-7" cx="9.22" cy="5.59" r="0.07"/><circle class="cls-10" cx="8.98" cy="3.19" r="0.07"/><circle class="cls-7" cx="8.98" cy="3.43" r="0.07"/><circle class="cls-11" cx="8.98" cy="3.91" r="0.07"/><circle class="cls-9" cx="8.98" cy="4.15" r="0.07"/><circle class="cls-8" cx="8.98" cy="4.39" r="0.09"/><circle class="cls-9" cx="8.98" cy="4.63" r="0.08"/><circle class="cls-7" cx="8.98" cy="4.87" r="0.08"/><circle class="cls-8" cx="8.98" cy="5.11" r="0.09"/><circle class="cls-9" cx="8.98" cy="5.35" r="0.09"/><path class="cls-14" d="M9,5.59a0.1,0.1,0,0,1,.2,0" transform="translate(-0.08)"/><circle class="cls-7" cx="8.74" cy="4.15" r="0.07"/><circle class="cls-10" cx="8.74" cy="4.63" r="0.07"/><circle class="cls-7" cx="8.74" cy="5.11" r="0.07"/><circle class="cls-7" cx="8.74" cy="5.35" r="0.07"/><circle class="cls-11" cx="8.74" cy="5.59" r="0.07"/><circle class="cls-9" cx="8.5" cy="5.35" r="0.07"/><circle class="cls-10" cx="8.26" cy="3.43" r="0.07"/><circle class="cls-10" cx="8.26" cy="3.67" r="0.09"/><circle class="cls-11" cx="8.26" cy="3.91" r="0.07"/><circle class="cls-7" cx="8.26" cy="4.15" r="0.09"/><circle class="cls-10" cx="8.26" cy="4.39" r="0.07"/><circle class="cls-9" cx="8.26" cy="4.63" r="0.08"/><circle class="cls-9" cx="8.26" cy="5.35" r="0.07"/><circle class="cls-7" cx="7.78" cy="0.55" r="0.07"/><circle class="cls-9" cx="7.78" cy="4.15" r="0.07"/><circle class="cls-11" cx="7.78" cy="4.39" r="0.07"/><circle class="cls-9" cx="7.78" cy="4.63" r="0.07"/><circle class="cls-10" cx="7.78" cy="4.87" r="0.07"/><circle class="cls-7" cx="7.78" cy="5.35" r="0.07"/><circle class="cls-10" cx="7.78" cy="5.59" r="0.08"/><circle class="cls-8" cx="7.54" cy="4.15" r="0.07"/><circle class="cls-10" cx="7.54" cy="4.39" r="0.07"/><circle class="cls-9" cx="7.54" cy="4.63" r="0.08"/><circle class="cls-7" cx="7.3" cy="0.79" r="0.07"/><circle class="cls-11" cx="7.3" cy="1.03" r="0.08"/><circle class="cls-10" cx="7.3" cy="1.99" r="0.07"/><circle class="cls-10" cx="7.3" cy="2.47" r="0.07"/><circle class="cls-10" cx="7.3" cy="2.71" r="0.1"/><circle class="cls-7" cx="7.3" cy="2.95" r="0.08"/><circle class="cls-7" cx="7.3" cy="3.19" r="0.07"/><circle class="cls-7" cx="7.3" cy="3.91" r="0.07"/><circle class="cls-8" cx="7.3" cy="4.15" r="0.07"/><circle class="cls-7" cx="7.3" cy="4.39" r="0.07"/><circle class="cls-7" cx="7.3" cy="4.63" r="0.1"/><circle class="cls-7" cx="7.3" cy="4.87" r="0.08"/><circle class="cls-9" cx="7.3" cy="5.11" r="0.08"/><circle class="cls-7" cx="7.3" cy="5.35" r="0.09"/><circle class="cls-8" cx="7.3" cy="5.59" r="0.09"/><circle class="cls-9" cx="7.06" cy="5.59" r="0.07"/><circle class="cls-8" cx="6.82" cy="4.87" r="0.07"/><circle class="cls-11" cx="6.82" cy="5.11" r="0.08"/><circle class="cls-11" cx="6.82" cy="5.35" r="0.09"/><circle class="cls-10" cx="6.82" cy="5.59" r="0.07"/><circle class="cls-10" cx="6.58" cy="4.87" r="0.07"/><circle class="cls-8" cx="6.58" cy="5.11" r="0.08"/><circle class="cls-7" cx="6.58" cy="5.35" r="0.09"/><circle class="cls-7" cx="6.58" cy="5.59" r="0.07"/><circle class="cls-11" cx="5.38" cy="4.15" r="0.07"/><circle class="cls-11" cx="5.38" cy="4.39" r="0.07"/><circle class="cls-7" cx="5.38" cy="5.59" r="0.07"/><circle class="cls-10" cx="5.14" cy="4.63" r="0.07"/><circle class="cls-8" cx="5.14" cy="4.87" r="0.09"/><circle class="cls-10" cx="5.14" cy="5.11" r="0.08"/><circle class="cls-7" cx="5.14" cy="5.35" r="0.1"/><circle class="cls-9" cx="4.9" cy="4.39" r="0.07"/><circle class="cls-10" cx="4.9" cy="4.63" r="0.07"/><circle class="cls-8" cx="4.9" cy="4.87" r="0.09"/><circle class="cls-8" cx="4.9" cy="5.59" r="0.07"/><circle class="cls-8" cx="4.66" cy="1.75" r="0.07"/><circle class="cls-7" cx="4.42" cy="4.87" r="0.07"/><circle class="cls-7" cx="4.42" cy="5.11" r="0.1"/><circle class="cls-7" cx="4.42" cy="5.35" r="0.09"/><path class="cls-15" d="M4.4,5.59a0.1,0.1,0,0,1,.2,0" transform="translate(-0.08)"/><circle class="cls-8" cx="4.18" cy="3.43" r="0.07"/><circle class="cls-8" cx="4.18" cy="3.67" r="0.08"/><circle class="cls-8" cx="4.18" cy="3.91" r="0.07"/><circle class="cls-9" cx="4.18" cy="4.15" r="0.09"/><circle class="cls-8" cx="4.18" cy="4.39" r="0.07"/><circle class="cls-7" cx="4.18" cy="4.63" r="0.07"/><circle class="cls-10" cx="4.18" cy="4.87" r="0.1"/><circle class="cls-7" cx="4.18" cy="5.11" r="0.08"/><circle class="cls-10" cx="4.18" cy="5.35" r="0.09"/><circle class="cls-9" cx="4.18" cy="5.59" r="0.07"/><circle class="cls-9" cx="3.94" cy="2.47" r="0.07"/><circle class="cls-7" cx="3.94" cy="2.95" r="0.07"/><circle class="cls-9" cx="3.94" cy="3.19" r="0.08"/><circle class="cls-9" cx="3.94" cy="3.43" r="0.07"/><circle class="cls-9" cx="3.94" cy="3.67" r="0.08"/><circle class="cls-7" cx="3.94" cy="4.39" r="0.07"/><circle class="cls-10" cx="3.94" cy="4.63" r="0.07"/><circle class="cls-7" cx="3.94" cy="4.87" r="0.07"/><circle class="cls-7" cx="3.94" cy="5.11" r="0.08"/><circle class="cls-8" cx="3.94" cy="5.35" r="0.1"/><circle class="cls-8" cx="3.94" cy="5.59" r="0.07"/><circle class="cls-7" cx="3.7" cy="3.67" r="0.07"/><circle class="cls-7" cx="3.7" cy="4.39" r="0.07"/><circle class="cls-9" cx="3.7" cy="4.63" r="0.07"/><circle class="cls-7" cx="3.7" cy="4.87" r="0.09"/><circle class="cls-10" cx="3.7" cy="5.59" r="0.07"/><circle class="cls-7" cx="3.46" cy="4.15" r="0.07"/><circle class="cls-10" cx="3.46" cy="4.39" r="0.07"/><circle class="cls-11" cx="3.46" cy="4.63" r="0.08"/><circle class="cls-11" cx="3.46" cy="4.87" r="0.09"/><circle class="cls-9" cx="3.46" cy="5.35" r="0.07"/><circle class="cls-8" cx="3.46" cy="5.59" r="0.08"/><circle class="cls-11" cx="2.98" cy="5.59" r="0.07"/><circle class="cls-7" cx="2.26" cy="5.35" r="0.07"/><circle class="cls-11" cx="2.26" cy="5.59" r="0.07"/><circle class="cls-9" cx="2.02" cy="2.95" r="0.07"/><circle class="cls-9" cx="1.78" cy="2.95" r="0.07"/><circle class="cls-7" cx="1.54" cy="4.87" r="0.07"/><circle class="cls-9" cx="1.54" cy="5.11" r="0.07"/><circle class="cls-10" cx="1.54" cy="5.35" r="0.1"/><circle class="cls-7" cx="1.3" cy="0.79" r="0.07"/><circle class="cls-7" cx="1.3" cy="1.03" r="0.09"/><circle class="cls-7" cx="0.82" cy="5.11" r="0.07"/><circle class="cls-9" cx="0.58" cy="4.87" r="0.07"/><circle class="cls-7" cx="0.58" cy="5.11" r="0.08"/><circle class="cls-10" cx="0.58" cy="5.35" r="0.07"/><circle class="cls-9" cx="0.58" cy="5.59" r="0.07"/><path class="cls-12" d="M0.42,0.15A0.07,0.07,0,0,0,.49.08h0A0.07,0.07,0,0,0,.42,0h0A0.07,0.07,0,0,0,.35.07,0.07,0.07,0,0,0,.41.15h0Z" transform="translate(-0.08)"/><circle class="cls-11" cx="0.34" cy="0.31" r="0.07"/><circle class="cls-9" cx="0.34" cy="0.55" r="0.07"/><circle class="cls-9" cx="0.34" cy="0.79" r="0.1"/><circle class="cls-8" cx="0.34" cy="1.03" r="0.07"/><circle class="cls-10" cx="0.34" cy="2.95" r="0.07"/><circle class="cls-11" cx="0.34" cy="3.91" r="0.07"/><circle class="cls-10" cx="0.34" cy="4.63" r="0.07"/><circle class="cls-9" cx="0.34" cy="4.87" r="0.1"/><circle class="cls-8" cx="0.34" cy="5.59" r="0.07"/><circle class="cls-9" cx="0.1" cy="0.55" r="0.07"/><circle class="cls-9" cx="0.1" cy="0.79" r="0.1"/><circle class="cls-7" cx="0.1" cy="1.03" r="0.07"/><circle class="cls-11" cx="0.1" cy="2.95" r="0.07"/><circle class="cls-9" cx="0.1" cy="3.19" r="0.09"/><circle class="cls-10" cx="0.1" cy="5.59" r="0.07"/><path class="cls-13" d="M0,1H0Z" transform="translate(-0.08)"/><path class="cls-16" d="M0,4.14H0Z" transform="translate(-0.08)"/><path class="cls-14" d="M0,4.38H0Z" transform="translate(-0.08)"/><circle class="cls-8" cx="24.82" cy="3.18" r="0.07"/><circle class="cls-9" cx="24.82" cy="3.42" r="0.09"/><circle class="cls-8" cx="24.82" cy="4.38" r="0.07"/><circle class="cls-7" cx="24.82" cy="4.86" r="0.07"/><circle class="cls-10" cx="24.82" cy="5.1" r="0.08"/><circle class="cls-11" cx="24.58" cy="4.86" r="0.07"/><circle class="cls-7" cx="24.58" cy="5.1" r="0.08"/><circle class="cls-7" cx="24.34" cy="5.1" r="0.07"/><circle class="cls-8" cx="24.34" cy="5.58" r="0.07"/><circle class="cls-7" cx="24.1" cy="5.1" r="0.07"/><circle class="cls-7" cx="24.1" cy="5.34" r="0.07"/><circle class="cls-11" cx="24.1" cy="5.58" r="0.1"/><circle class="cls-11" cx="23.86" cy="5.34" r="0.07"/><circle class="cls-9" cx="23.86" cy="5.58" r="0.1"/><circle class="cls-10" cx="22.66" cy="5.1" r="0.07"/><circle class="cls-8" cx="22.66" cy="5.34" r="0.1"/><circle class="cls-9" cx="22.42" cy="5.1" r="0.07"/><circle class="cls-7" cx="22.18" cy="5.1" r="0.07"/><circle class="cls-9" cx="22.18" cy="5.34" r="0.07"/><circle class="cls-11" cx="22.18" cy="5.58" r="0.07"/><circle class="cls-10" cx="21.94" cy="4.86" r="0.07"/><circle class="cls-10" cx="21.94" cy="5.1" r="0.08"/><circle class="cls-7" cx="21.94" cy="5.34" r="0.07"/><circle class="cls-9" cx="21.7" cy="4.14" r="0.07"/><circle class="cls-11" cx="21.46" cy="3.66" r="0.07"/><circle class="cls-7" cx="21.46" cy="4.14" r="0.07"/><circle class="cls-11" cx="21.46" cy="4.38" r="0.07"/><circle class="cls-7" cx="21.46" cy="4.62" r="0.07"/><circle class="cls-7" cx="21.46" cy="4.86" r="0.09"/><circle class="cls-7" cx="21.46" cy="5.1" r="0.08"/><circle class="cls-10" cx="21.46" cy="5.34" r="0.1"/><circle class="cls-7" cx="20.98" cy="3.18" r="0.07"/><circle class="cls-8" cx="20.98" cy="3.42" r="0.07"/><circle class="cls-8" cx="20.98" cy="3.66" r="0.07"/><circle class="cls-8" cx="20.98" cy="3.9" r="0.1"/><circle class="cls-11" cx="20.98" cy="4.14" r="0.07"/><circle class="cls-11" cx="20.98" cy="4.38" r="0.09"/><circle class="cls-7" cx="20.98" cy="4.62" r="0.08"/><circle class="cls-8" cx="20.98" cy="4.86" r="0.08"/><circle class="cls-7" cx="20.98" cy="5.1" r="0.09"/><circle class="cls-7" cx="20.98" cy="5.34" r="0.09"/><circle class="cls-7" cx="20.98" cy="5.58" r="0.07"/><circle class="cls-10" cx="20.74" cy="3.18" r="0.07"/><circle class="cls-7" cx="20.74" cy="3.42" r="0.07"/><circle class="cls-11" cx="20.74" cy="3.9" r="0.07"/><circle class="cls-9" cx="20.74" cy="4.14" r="0.07"/><circle class="cls-8" cx="20.74" cy="4.38" r="0.09"/><circle class="cls-9" cx="20.74" cy="4.62" r="0.08"/><circle class="cls-7" cx="20.74" cy="4.86" r="0.08"/><circle class="cls-8" cx="20.74" cy="5.1" r="0.09"/><circle class="cls-9" cx="20.74" cy="5.34" r="0.09"/><circle class="cls-10" cx="20.74" cy="5.58" r="0.1"/><circle class="cls-10" cx="20.09" cy="4.87" r="0.07"/><circle class="cls-10" cx="20.09" cy="5.11" r="0.08"/><circle class="cls-7" cx="20.09" cy="5.35" r="0.07"/><circle class="cls-9" cx="19.85" cy="4.15" r="0.07"/><circle class="cls-11" cx="19.61" cy="3.67" r="0.07"/><circle class="cls-7" cx="19.61" cy="4.15" r="0.07"/><circle class="cls-11" cx="19.61" cy="4.39" r="0.07"/><circle class="cls-7" cx="19.61" cy="4.63" r="0.07"/><circle class="cls-7" cx="19.61" cy="4.87" r="0.09"/><circle class="cls-7" cx="19.61" cy="5.11" r="0.08"/><circle class="cls-10" cx="19.61" cy="5.35" r="0.1"/><circle class="cls-7" cx="19.13" cy="3.19" r="0.07"/><circle class="cls-8" cx="19.13" cy="3.43" r="0.07"/><circle class="cls-8" cx="19.13" cy="3.67" r="0.07"/><circle class="cls-8" cx="19.13" cy="3.91" r="0.1"/><circle class="cls-11" cx="19.13" cy="4.15" r="0.07"/><circle class="cls-11" cx="19.13" cy="4.39" r="0.09"/><circle class="cls-7" cx="19.13" cy="4.63" r="0.08"/><circle class="cls-8" cx="19.13" cy="4.87" r="0.08"/><circle class="cls-7" cx="19.13" cy="5.11" r="0.09"/><circle class="cls-7" cx="19.13" cy="5.35" r="0.09"/><circle class="cls-7" cx="19.13" cy="5.59" r="0.07"/><circle class="cls-10" cx="18.89" cy="3.19" r="0.07"/><circle class="cls-7" cx="18.89" cy="3.43" r="0.07"/><circle class="cls-11" cx="18.89" cy="3.91" r="0.07"/><circle class="cls-9" cx="18.89" cy="4.15" r="0.07"/><circle class="cls-8" cx="18.89" cy="4.39" r="0.09"/><circle class="cls-9" cx="18.89" cy="4.63" r="0.08"/><circle class="cls-7" cx="18.89" cy="4.87" r="0.08"/><circle class="cls-8" cx="18.89" cy="5.11" r="0.09"/><circle class="cls-9" cx="18.89" cy="5.35" r="0.09"/><path class="cls-14" d="M18.87,5.59a0.1,0.1,0,0,1,.2,0" transform="translate(-0.08)"/><circle class="cls-7" cx="18.65" cy="4.15" r="0.07"/><circle class="cls-10" cx="18.65" cy="4.63" r="0.07"/><circle class="cls-7" cx="18.65" cy="5.11" r="0.07"/><circle class="cls-7" cx="18.65" cy="5.35" r="0.07"/><circle class="cls-11" cx="18.65" cy="5.59" r="0.07"/></svg>