<svg id="Capa_1" data-name="Capa 1" xmlns="http://www.w3.org/2000/svg" viewBox="0 0 694.6 157.64"><defs><style>.cls-1{fill:#333;}.cls-2{fill:#f34809;}.cls-3{fill:#fff;stroke:#ca611f;stroke-miterlimit:10;}.cls-4{fill:#7c7c7c;}</style></defs><title>logo</title><path class="cls-1" d="M88.94,78.81v20l-25.67-.05a29.59,29.59,0,1,0,29.59,29.59L93,69.39A49.32,49.32,0,0,1,142.3,20.07l4.59-.07V39.81H142.3A29.59,29.59,0,0,0,112.7,69.39l-0.12,58.93A49.32,49.32,0,1,1,63.26,79Z" transform="translate(-13.95 -20)"/><circle class="cls-2" cx="49.81" cy="108.83" r="11.84"/><polygon class="cls-1" points="133.31 78.17 102.53 78.66 102.53 65.84 102.53 58.81 133.31 58.32 133.31 78.17"/><path class="cls-3" d="M112.44,100.39" transform="translate(-13.95 -20)"/><path class="cls-1" d="M219.48,67.42c0,16.7-12.4,29.52-28.67,29.52H167.62a1.91,1.91,0,0,1-2.11-2.11V40a1.91,1.91,0,0,1,2.11-2.11h23.19C207.08,37.9,219.48,50.72,219.48,67.42Zm-13,0c0-10.12-6.41-16.53-15.69-16.53H179V83.95h11.81C200.08,83.95,206.49,77.54,206.49,67.42Z" transform="translate(-13.95 -20)"/><path class="cls-1" d="M226.65,47.6V40a1.91,1.91,0,0,1,2.11-2.11h8.43A1.91,1.91,0,0,1,239.3,40V47.6a1.91,1.91,0,0,1-2.11,2.11h-8.43A1.91,1.91,0,0,1,226.65,47.6Zm0,47.23v-38a1.91,1.91,0,0,1,2.11-2.11h8.43a1.91,1.91,0,0,1,2.11,2.11v38a1.91,1.91,0,0,1-2.11,2.11h-8.43A1.91,1.91,0,0,1,226.65,94.83Z" transform="translate(-13.95 -20)"/><path class="cls-1" d="M290.32,75.85c0,1.1-.08,2.11-0.17,3.12a2,2,0,0,1-2.28,1.94H259.71c1.53,5,5.47,7,9.86,7a10.11,10.11,0,0,0,6.24-2.11,3.85,3.85,0,0,1,2.61-1.1l8.1-.08c1.52,0,2.36,1,1.69,2.36-3.29,7.34-10.2,11.13-18.81,11.13-14,0-22.94-9.7-22.94-22.26s9.28-22.26,22.6-22.26C281.38,53.59,290.32,63.12,290.32,75.85ZM277.73,71.3c-1.3-4.8-5-6.49-8.74-6.49-4.74,0-8,2.29-9.32,6.49h18.07Z" transform="translate(-13.95 -20)"/><path class="cls-1" d="M338.47,54.77a1.91,1.91,0,0,1,2.11,2.11v38C340.58,109,329.2,115,318.91,115s-20-4.89-21.25-15a1.9,1.9,0,0,1,2.11-2.19h8.52a2.26,2.26,0,0,1,2.28,1.86c0.93,2.53,3.71,4.22,8.35,4.22,5.65,0,9.36-3,9.36-9V91c-2.83,3.37-7,5.44-12.9,5.44-11,0-20.16-9.7-20.16-21.42s9.11-21.42,20.16-21.42c5.87,0,10.08,2.06,12.9,5.44V56.88a1.91,1.91,0,0,1,2.11-2.11h8.1ZM328.27,75c0-5.82-4.22-9.78-10.2-9.78s-10.2,4-10.2,9.78,4.22,9.78,10.2,9.78S328.27,80.83,328.27,75Z" transform="translate(-13.95 -20)"/><path class="cls-1" d="M347.75,75.85A22.35,22.35,0,1,1,370.1,98.12,22.1,22.1,0,0,1,347.75,75.85Zm32,0c0-6-4.22-10-9.7-10s-9.7,4-9.7,10,4.22,10,9.7,10S379.8,81.84,379.8,75.85Z" transform="translate(-13.95 -20)"/><path class="cls-2" d="M413.53,50.89V63.12h19a1.91,1.91,0,0,1,2.11,2.11V74a1.91,1.91,0,0,1-2.11,2.11h-19V94.83a1.91,1.91,0,0,1-2.11,2.11h-9.28A1.91,1.91,0,0,1,400,94.83V40a1.91,1.91,0,0,1,2.11-2.11h30.78A1.91,1.91,0,0,1,435,40v8.77a1.91,1.91,0,0,1-2.11,2.11h-19.4Z" transform="translate(-13.95 -20)"/><path class="cls-2" d="M440.09,75.85a22.35,22.35,0,1,1,22.35,22.26A22.1,22.1,0,0,1,440.09,75.85Zm32,0c0-6-4.22-10-9.7-10s-9.7,4-9.7,10,4.22,10,9.7,10S472.14,81.84,472.14,75.85Z" transform="translate(-13.95 -20)"/><path class="cls-2" d="M529.07,70.2V94.83A1.91,1.91,0,0,1,527,96.94h-8.43a1.91,1.91,0,0,1-2.11-2.11V71.3c0-4.22-2.45-6.07-5.65-6.07-3.8,0-6.16,2.11-6.16,7.08V94.83a1.91,1.91,0,0,1-2.11,2.11h-8.43A1.91,1.91,0,0,1,492,94.83v-38a1.91,1.91,0,0,1,2.11-2.11h8.43a1.91,1.91,0,0,1,2.11,2.11v1.74c2-2.93,5.57-5,11-5C523.42,53.59,529.07,59.66,529.07,70.2Z" transform="translate(-13.95 -20)"/><path class="cls-2" d="M570.64,84.29c0,9.7-8.26,13.83-17.54,13.83-8.6,0-16.36-3.88-17.37-12.82a1.81,1.81,0,0,1,2-2.19H546c1.26,0,1.69.67,2.28,1.77,0.67,1.43,2.28,2.28,4.81,2.28,3.54,0,4.89-1.18,4.89-2.87,0-6.07-22-.51-22-16.87,0-9.53,8.26-13.83,17.12-13.83,7.84,0,15.52,3.88,16.53,12.82a1.81,1.81,0,0,1-2,2.19h-8.27c-1.26,0-1.69-.67-2.28-1.85a4,4,0,0,0-4-2.19c-3.12,0-4.47,1.18-4.47,2.87C548.63,73.66,570.64,67.84,570.64,84.29Z" transform="translate(-13.95 -20)"/><path class="cls-2" d="M619.13,75.85c0,1.1-.08,2.11-0.17,3.12a2,2,0,0,1-2.28,1.94H588.52c1.53,5,5.47,7,9.86,7a10.1,10.1,0,0,0,6.24-2.11,3.86,3.86,0,0,1,2.62-1.1l8.1-.08c1.52,0,2.36,1,1.69,2.36-3.29,7.34-10.2,11.13-18.81,11.13-14,0-22.94-9.7-22.94-22.26s9.28-22.26,22.6-22.26C610.19,53.59,619.13,63.12,619.13,75.85ZM606.54,71.3c-1.3-4.8-5-6.49-8.74-6.49-4.74,0-8,2.29-9.33,6.49h18.07Z" transform="translate(-13.95 -20)"/><path class="cls-2" d="M667.12,83.27C664.5,92,656.24,98.12,646.37,98.12A21.85,21.85,0,0,1,624,75.85a21.85,21.85,0,0,1,22.35-22.26c9.87,0,18.13,6.07,20.75,14.84,0.51,1.43-.34,2.36-1.77,2.36h-9.28a3,3,0,0,1-2.53-1.43,8.6,8.6,0,0,0-7.17-3.29,9.78,9.78,0,0,0,0,19.57,8.77,8.77,0,0,0,7.17-3.21,2.78,2.78,0,0,1,2.53-1.52h9.28C666.78,80.91,667.62,81.84,667.12,83.27Z" transform="translate(-13.95 -20)"/><path class="cls-2" d="M708.19,70.37V94.83a1.91,1.91,0,0,1-2.11,2.11H698a1.91,1.91,0,0,1-2.11-2.11v-1.2c-2.26,2.65-5.58,4.49-10.88,4.49-7.42,0-13.92-4.39-13.92-13.16S677.57,71.8,685,71.8c5.3,0,8.62,1.5,10.88,3.22V71.21c0-4.13-1.69-6-5.23-6-2.61,0-4.22,1-4.89,2.45-0.51,1.18-.93,1.85-2.19,1.85H675.3a1.9,1.9,0,0,1-2.11-2.19c1.1-9.11,8.86-13.75,17.46-13.75C699.92,53.59,708.19,59,708.19,70.37ZM695.88,85c0-2.61-2.28-4.22-6.41-4.22-3.88,0-5.74,1.77-5.74,4.22s1.86,4.22,5.74,4.22C693.6,89.18,695.88,87.41,695.88,85Z" transform="translate(-13.95 -20)"/><path class="cls-4" d="M376.08,135.76a10.59,10.59,0,0,1-10.78,10.56h-4.62v8.58a1,1,0,0,1-1.1,1.1h-4.84a1,1,0,0,1-1.1-1.1V126.3a1,1,0,0,1,1.1-1.1H365.3A10.59,10.59,0,0,1,376.08,135.76Zm-7,0a3.76,3.76,0,0,0-3.74-4h-4.62v7.92h4.62A3.76,3.76,0,0,0,369,135.76Z" transform="translate(-13.95 -20)"/><path class="cls-4" d="M393.77,134h4.75a0.85,0.85,0,0,1,.92,1.23l-9.5,28.69a1.2,1.2,0,0,1-1.28.88h-4.75a0.85,0.85,0,0,1-.92-1.23l2.64-7.92-7.75-20.38a0.86,0.86,0,0,1,.88-1.28h4.75a1.23,1.23,0,0,1,1.23.88l4.18,11.66,3.61-11.62A1.19,1.19,0,0,1,393.77,134Z" transform="translate(-13.95 -20)"/><path class="cls-4" d="M414.58,135.1v4.14a1,1,0,0,1-1.1,1.1h-2.42V154.9A1,1,0,0,1,410,156h-4.4a1,1,0,0,1-1.1-1.1V140.33H402a1,1,0,0,1-1.1-1.1V135.1A1,1,0,0,1,402,134h2.42v-5.94a1,1,0,0,1,1.1-1.1H410a1,1,0,0,1,1.1,1.1V134h2.42A1,1,0,0,1,414.58,135.1Z" transform="translate(-13.95 -20)"/><path class="cls-4" d="M437,142V154.9a1,1,0,0,1-1.1,1.1h-4.4a1,1,0,0,1-1.1-1.1V142.62c0-2.2-1.28-3.17-2.95-3.17-2,0-3.21,1.1-3.21,3.7V154.9a1,1,0,0,1-1.1,1.1h-4.4a1,1,0,0,1-1.1-1.1V126.3a1,1,0,0,1,1.1-1.1h4.4a1,1,0,0,1,1.1,1.1V136c1-1.53,2.91-2.63,5.72-2.63C434.07,133.38,437,136.55,437,142Z" transform="translate(-13.95 -20)"/><path class="cls-4" d="M440.19,145a11.66,11.66,0,1,1,11.66,11.62A11.53,11.53,0,0,1,440.19,145Zm16.72,0a5.06,5.06,0,1,0-5.06,5.19A4.94,4.94,0,0,0,456.91,145Z" transform="translate(-13.95 -20)"/><path class="cls-4" d="M486.61,142V154.9a1,1,0,0,1-1.1,1.1h-4.4a1,1,0,0,1-1.1-1.1V142.62c0-2.2-1.28-3.17-2.95-3.17-2,0-3.21,1.1-3.21,3.7V154.9a1,1,0,0,1-1.1,1.1h-4.4a1,1,0,0,1-1.1-1.1V135.1a1,1,0,0,1,1.1-1.1h4.4a1,1,0,0,1,1.1,1.1V136c1-1.53,2.91-2.63,5.72-2.63C483.66,133.38,486.61,136.55,486.61,142Z" transform="translate(-13.95 -20)"/><path class="cls-4" d="M530.26,140.6c0,8.71-6.47,15.4-15,15.4h-12.1a1,1,0,0,1-1.1-1.1V126.3a1,1,0,0,1,1.1-1.1h12.1C523.79,125.2,530.26,131.88,530.26,140.6Zm-6.78,0c0-5.28-3.34-8.62-8.18-8.62h-6.16v17.25h6.16C520.14,149.22,523.48,145.88,523.48,140.6Z" transform="translate(-13.95 -20)"/><path class="cls-4" d="M556,145c0,0.57,0,1.1-.09,1.63a1.06,1.06,0,0,1-1.19,1H540a5,5,0,0,0,5.15,3.65,5.28,5.28,0,0,0,3.26-1.1,2,2,0,0,1,1.36-.57l4.22,0a0.82,0.82,0,0,1,.88,1.23c-1.72,3.83-5.33,5.81-9.81,5.81-7.31,0-12-5.06-12-11.62a11.35,11.35,0,0,1,11.79-11.62C551.33,133.38,556,138.35,556,145Zm-6.57-2.38a4.4,4.4,0,0,0-4.56-3.39,4.67,4.67,0,0,0-4.87,3.39h9.43Z" transform="translate(-13.95 -20)"/><path class="cls-4" d="M578.35,135.27l-7.17,19.85a1.23,1.23,0,0,1-1.23.88h-4.75a1.23,1.23,0,0,1-1.23-.88l-7.17-19.85a0.87,0.87,0,0,1,.92-1.28h4.71a1.19,1.19,0,0,1,1.23.92l3.92,12.62,3.92-12.62a1.19,1.19,0,0,1,1.23-.92h4.75A0.85,0.85,0,0,1,578.35,135.27Z" transform="translate(-13.95 -20)"/><path class="cls-4" d="M602.33,145c0,0.57,0,1.1-.09,1.63a1.06,1.06,0,0,1-1.19,1h-14.7a5,5,0,0,0,5.15,3.65,5.28,5.28,0,0,0,3.26-1.1,2,2,0,0,1,1.36-.57l4.22,0a0.82,0.82,0,0,1,.88,1.23c-1.72,3.83-5.33,5.81-9.81,5.81-7.31,0-12-5.06-12-11.62a11.35,11.35,0,0,1,11.79-11.62C597.66,133.38,602.33,138.35,602.33,145Zm-6.57-2.38a4.4,4.4,0,0,0-4.56-3.39,4.67,4.67,0,0,0-4.87,3.39h9.43Z" transform="translate(-13.95 -20)"/><path class="cls-4" d="M606,154.9V125.42a1,1,0,0,1,1.1-1.1h4.4a1,1,0,0,1,1.1,1.1V154.9a1,1,0,0,1-1.1,1.1h-4.4A1,1,0,0,1,606,154.9Z" transform="translate(-13.95 -20)"/><path class="cls-4" d="M616.32,145A11.66,11.66,0,1,1,628,156.62,11.53,11.53,0,0,1,616.32,145ZM633,145a5.06,5.06,0,1,0-5.06,5.19A4.94,4.94,0,0,0,633,145Z" transform="translate(-13.95 -20)"/><path class="cls-4" d="M667.05,145c0,6.56-4.75,11.62-10.52,11.62a8.28,8.28,0,0,1-6.56-2.67v9.76a1,1,0,0,1-1.1,1.1h-4.4a1,1,0,0,1-1.1-1.1V135.1a1,1,0,0,1,1.1-1.1h4.4a1,1,0,0,1,1.1,1.1v1a8.27,8.27,0,0,1,6.56-2.67C662.3,133.38,667.05,138.44,667.05,145Zm-6.6,0a5.24,5.24,0,1,0-5.24,5.37A5,5,0,0,0,660.45,145Z" transform="translate(-13.95 -20)"/><path class="cls-4" d="M692.57,145c0,0.57,0,1.1-.09,1.63a1.06,1.06,0,0,1-1.19,1H676.6a5,5,0,0,0,5.15,3.65,5.28,5.28,0,0,0,3.26-1.1,2,2,0,0,1,1.36-.57l4.22,0a0.82,0.82,0,0,1,.88,1.23c-1.72,3.83-5.33,5.81-9.81,5.81-7.31,0-12-5.06-12-11.62a11.35,11.35,0,0,1,11.79-11.62C687.91,133.38,692.57,138.35,692.57,145ZM686,142.62a4.4,4.4,0,0,0-4.56-3.39,4.67,4.67,0,0,0-4.87,3.39H686Z" transform="translate(-13.95 -20)"/><path class="cls-4" d="M708.54,134.7v5.19a0.87,0.87,0,0,1-.88,1.06c-2.46-.09-4.84,1.14-4.84,4.67v9.29a1,1,0,0,1-1.1,1.1h-4.4a1,1,0,0,1-1.1-1.1V135.1a1,1,0,0,1,1.1-1.1h4.4a1,1,0,0,1,1.1,1.1v2.38a5.35,5.35,0,0,1,4.58-3.83A0.93,0.93,0,0,1,708.54,134.7Z" transform="translate(-13.95 -20)"/></svg>